<svg width="32" height="32" fill="none" xmlns="http://www.w3.org/2000/svg"><path d="M0 8a8 8 0 018-8h16a8 8 0 018 8v16a8 8 0 01-8 8H8a8 8 0 01-8-8V8z" fill="#F98012"/><path d="M21.967 22.792v-7.726c0-1.614-.666-2.422-1.998-2.422-1.332 0-2 .807-2.002 2.422v7.726H14.03v-7.726c0-1.614-.656-2.422-1.967-2.422-1.335 0-2 .807-1.998 2.422v7.726H6.129V14.61c0-1.685.585-2.96 1.756-3.827 1.03-.773 2.423-1.16 4.179-1.16 1.78 0 3.09.457 3.933 1.37.726-.913 2.05-1.37 3.97-1.37 1.755 0 3.147.387 4.177 1.16 1.17.866 1.756 2.141 1.756 3.827v8.182h-3.933z" fill="#fff"/><path d="M13.77 9.029l3.906-2.855-.05-.174C10.577 6.864 7.372 7.476 1.3 10.996l.056.16.483.005c-.044.486-.121 1.687-.023 3.493-.674 1.95-.017 3.274.6 4.715.097-1.499.087-3.14-.373-4.773-.096-1.794-.017-2.974.026-3.433l4.025.039c-.01.788.03 1.576.12 2.359 3.596 1.264 7.213-.005 9.134-3.12-.533-.597-1.578-1.412-1.578-1.412z" fill="#333"/></svg>